
<svg version="1.1" xmlns="http://www.w3.org/2000/svg" viewBox="0 0 137.144 137.144" xmlns:xlink="http://www.w3.org/1999/xlink" enable-background="new 0 0 137.144 137.144">
    <g>
        <g>
            <path d="m88.828,54.858c-9.917,0.181-20.255,13.714-20.255,13.714s-10.5-13.533-20.572-13.714c-11.781-0.213-27.429-6.857-27.429-6.857s-0.583,29.156 13.715,41.144c8.991,7.537 34.286,13.714 34.286,13.714s25.433-6.177 34.286-13.714c14.078-11.987 13.714-41.144 13.714-41.144s-16.146,6.645-27.745,6.857zm-33.97,27.429c-11.656-0.364-13.714-12.779-13.714-12.779s4.428-1.762 10.286,0c9.005,2.71 10.286,11.549 10.286,11.549s-1.063,1.41-6.858,1.23zm27.429,0c-6.132,0.134-6.857-1.444-6.857-1.444s1.281-8.839 10.286-11.549c5.858-1.763 10.286,0 10.286,0s-1.726,12.732-13.715,12.993zm27.428-82.287h-82.286c-15.149,0-27.429,12.28-27.429,27.429v82.287c0,15.148 12.28,27.428 27.429,27.428h82.286c15.148,0 27.429-12.28 27.429-27.428v-82.287c0-15.149-12.28-27.429-27.429-27.429zm13.714,102.858c0,11.362-9.21,20.572-20.572,20.572h-68.571c-11.361,0-20.572-9.21-20.572-20.572v-68.572c0-11.361 9.21-20.571 20.572-20.571h68.572c11.361,0 20.572,9.21 20.572,20.571v68.572z"/>
        </g>
    </g>
</svg>
